<svg xmlns="http://www.w3.org/2000/svg" viewBox="0 0 300 400" role="img" aria-label="DeepSeek article thumbnail">
  <rect width="300" height="400" fill="#f4f4f4"/>
  <rect x="28" y="16" width="244" height="368" fill="#fff"/>
  <text x="50" y="48" font-family="Arial, Helvetica, sans-serif" font-size="11" font-weight="700" fill="#111">ANALYSIS</text>
  <line x1="50" y1="55" x2="248" y2="55" stroke="#111" stroke-width="1"/>
  <text x="50" y="87" font-family="Arial, Helvetica, sans-serif" font-size="22" fill="#111">DeepSeek under</text>
  <text x="50" y="113" font-family="Arial, Helvetica, sans-serif" font-size="22" fill="#111">international</text>
  <text x="50" y="139" font-family="Arial, Helvetica, sans-serif" font-size="22" fill="#111">scrutiny</text>
  <text x="50" y="161" font-family="Arial, Helvetica, sans-serif" font-size="10" font-weight="700" fill="#111">Juliette Faivre</text>
  <g fill="#111">
    <rect x="50" y="184" width="52" height="3"/><rect x="50" y="195" width="50" height="3"/><rect x="50" y="206" width="48" height="3"/><rect x="50" y="217" width="53" height="3"/><rect x="50" y="228" width="46" height="3"/><rect x="50" y="239" width="51" height="3"/><rect x="50" y="250" width="49" height="3"/>
    <rect x="120" y="184" width="54" height="3"/><rect x="120" y="195" width="49" height="3"/><rect x="120" y="206" width="55" height="3"/><rect x="120" y="217" width="45" height="3"/><rect x="120" y="228" width="52" height="3"/><rect x="120" y="239" width="50" height="3"/><rect x="120" y="250" width="53" height="3"/>
    <rect x="190" y="184" width="50" height="3"/><rect x="190" y="195" width="54" height="3"/><rect x="190" y="206" width="47" height="3"/><rect x="190" y="217" width="52" height="3"/><rect x="190" y="228" width="49" height="3"/><rect x="190" y="239" width="55" height="3"/><rect x="190" y="250" width="45" height="3"/>
  </g>
  <rect x="113" y="279" width="78" height="58" fill="#d8d8d8"/>
  <text x="122" y="300" font-family="Arial, Helvetica, sans-serif" font-size="9" font-weight="700" fill="#111">WHAT ARE</text>
  <text x="122" y="313" font-family="Arial, Helvetica, sans-serif" font-size="9" font-weight="700" fill="#111">TOKENS?</text>
  <line x1="50" y1="356" x2="248" y2="356" stroke="#111" stroke-width="1"/>
</svg>
